<svg width="122" height="32" viewBox="0 0 122 32" fill="none" xmlns="http://www.w3.org/2000/svg">
<path d="M21.0464 10.5544L10.8925 7.22119L10.8002 11.1099L17.7233 11.6655L21.0464 10.5544Z" fill="#839EFF"/>
<path d="M20.677 20.7402L2.21536 30.925L10.5231 31.2954L22.7078 22.592L20.677 20.7402Z" fill="#839EFF"/>
<path d="M24 9.0742L5.72299 0.741211L7.19992 24.6291L10.6153 23.1477L10.8922 7.22243L21.0461 10.5556L20.6769 20.7404L22.7077 22.5922L24 9.0742Z" fill="#416AFF"/>
<path d="M5.72311 0.741211L0 3.3337L2.2154 30.9252L20.677 20.7404L21.0463 10.5556L17.7232 11.6667V19.9997L7.20004 24.6291L5.72311 0.741211Z" fill="#263BFC"/>
<path d="M47.2291 26.3227V8.57849H43.2518V14.8795L43.9975 17.0522H43.0032C42.3569 15.4347 41.1637 13.8897 38.0564 13.8897C34.4272 13.8897 32.6125 16.7625 32.6125 20.2148C32.6125 23.6671 34.4272 26.5641 38.0564 26.5641C41.1637 26.5641 42.3569 25.019 43.0032 23.4015H43.9975L43.2518 25.5743V26.3227H47.2291ZM43.2518 20.2148C43.2518 22.2669 42.0586 23.1842 39.9208 23.1842C37.783 23.1842 36.5898 22.2669 36.5898 20.2148C36.5898 18.1628 37.783 17.2695 39.9208 17.2695C42.0586 17.2695 43.2518 18.1628 43.2518 20.2148Z" fill="white"/>
<path d="M49.4713 26.3227H53.4486V17.3661L59.8371 17.5109V14.1311L51.6091 13.938C50.2419 13.9138 49.4713 14.6381 49.4713 15.9659V26.3227Z" fill="white"/>
<path d="M66.2332 12.924C67.6999 12.924 68.6196 12.248 68.6196 10.9927C68.6196 9.76143 67.6999 9.06132 66.2332 9.06132C64.7666 9.06132 63.8966 9.76143 63.8966 10.9927C63.8966 12.248 64.7666 12.924 66.2332 12.924ZM61.0876 26.3227H72.0252V22.9428H68.4705V15.9176C68.4705 14.5656 67.6998 13.8172 66.3078 13.8897L61.5848 14.1311V17.5109L64.6423 17.3661V22.9428H61.0876V26.3227Z" fill="white"/>
<path d="M81.3221 11.9583H83.957V8.57849H81.8192C77.6182 8.57849 75.6544 10.4133 75.6544 13.6965V14.1311H73.2681V17.5109H75.6544V22.9428H73.2681V26.3227H83.261V22.9428H79.6317V17.5109H83.261V14.1311H79.6317V13.8172C79.6317 12.4653 80.1537 11.9583 81.3221 11.9583Z" fill="white"/>
<path d="M92.9986 11.9583H95.6335V8.57849H93.4957C89.2947 8.57849 87.3309 10.4133 87.3309 13.6965V14.1311H84.9445V17.5109H87.3309V22.9428H84.9445V26.3227H94.9375V22.9428H91.3082V17.5109H94.9375V14.1311H91.3082V13.8172C91.3082 12.4653 91.8302 11.9583 92.9986 11.9583Z" fill="white"/>
<path d="M96.621 26.3227H107.559V22.9428H104.078V10.4374C104.078 9.08546 103.308 8.36121 101.916 8.40949L97.1182 8.57849V11.9583L100.101 11.8135V22.9428H96.621V26.3227Z" fill="white"/>
<path d="M108.303 20.07C108.303 23.5222 110.516 26.5641 115.338 26.5641C119.688 26.5641 121.752 23.7878 122 22.0254H118.023C117.774 22.9428 116.73 23.4257 115.338 23.4257C113.076 23.4257 112.032 22.4358 112.032 21.0356H121.553V19.8285C121.553 16.1349 118.818 13.8897 114.916 13.8897C111.013 13.8897 108.303 16.2073 108.303 20.07ZM112.032 18.8629C112.032 17.9455 112.703 17.0281 114.916 17.0281C117.128 17.0281 117.824 17.9455 117.824 18.8629H112.032Z" fill="white"/>
</svg>
